<svg xmlns="http://www.w3.org/2000/svg" xmlns:xlink="http://www.w3.org/1999/xlink" viewBox="0 0 480 228">
  <g id="Lag_11" data-name="Lag 11" style="isolation: isolate" class="showpart"> 
    <polyline points="277.68 170.72 279.94 156.39 283.21 143.57 287.24 135.03 293.64 126.23 300 126.09 315.26 132.68 326.18 138.23 337.62 142.91 343.86 147.59 341.98 156.02 342 169.5 314.36 170.87 277.68 172.3 277.43 172.35 277.68 170.72 277.68 170.72" />
  </g>
  <g id="Lag_10" data-name="Lag 10" style="isolation: isolate" class="showpart">
    <polygon points="293.64 126.23 303.16 118.71 313 115.65 323.75 113.09 333.78 111.35 340.92 110.31 346.64 110.14 353.33 108.81 359.39 107.76 363.97 106.67 369.18 106.5 362.76 110.49 357.5 115.13 352.88 122.8 350.46 127.25 347.46 134.87 346.12 139.61 344.01 144.84 343.56 147.19 337.62 142.91 330.86 140.31 326.18 138.23 320.63 135.45 315.26 132.68 308.84 129.73 304.34 127.48 300 126.09 293.64 126.23" />
  </g>
  <g id="Lag_18" data-name="Lag 18" class="showpart">
    <polygon points="137.91 102.92 158.78 99 175.88 92.87 190.59 83.6 202.89 78.04 212.84 73.79 224.54 68.52 233.91 64.43 243.13 59.74 252.21 55.94 263.33 51.84 273.43 46.63 280.45 42.47 289.82 38.38 297.57 34.42 306.55 31.35 310.89 30.04 303.43 23.59 296.99 19.5 290.25 18.33 282 18.75 279.5 17.4 277.03 16.64 282.17 15.51 284.65 17.39 289.9 16.04 295.51 15.78 302.59 15.78 305.99 13.51 307.4 10.96 312.78 7.57 317.59 3.89 322.4 1.34 327.22 3.32 328.5 8.25 327.43 13.79 319.8 16.29 312.11 21.56 315.07 25.18 320.79 30.23 324.85 36.49 332.65 44.29 338.47 49.24 345.75 54 348.02 53.85 348.57 49.02 352.69 53.43 364.87 56.82 377.04 57.96 392.61 56.54 399.97 53.99 410.44 50.6 421.2 47.2 430.26 41.54 436.49 34.74 440.73 27.1 445.55 22.57 452.06 20.87 458.29 21.16 460.82 25.63 452.83 27.75 447.93 33.29 445.65 39 443 45.5 438.96 51.07 430.97 56.45 422.9 59.09 414.9 62.47 422.63 65.14 429.01 66.56 435.74 68.76 441.45 70.43 429.38 72.56 411.66 78.34 393.56 81.74 373.36 85.13 366.04 87.27 345.55 90.03 289.45 93.12 258.71 94.36 250.16 95.44 233.23 99.57 223.23 102.87 215.99 106.11 210.96 107.87 190.25 103.12 174.45 104.47 152.12 103.26 146.44 102.86 143.87 103.12 140.88 103.42 137.91 102.92" />
  </g>
  <g id="Lag_19" data-name="Lag 19" class="showpart">
    <polygon points="396.83 98.7 396.45 92.04 396.58 88.15 399.6 84.94 403.34 84.94 409.02 84.38 413.3 84.13 418.17 83.83 422.09 83.5 422.72 86.64 422.6 90.16 423 93.75 418.84 96.27 412.62 98.52 404.25 100.5 396.83 98.7 396.83 98.7" />
  </g>
  <g id="flap" style="isolation: isolate" class="showpart">
    <path d="M312.11,21.56l3.29-3.74,4.4-1.53,3.4-.88,3.05-1.16a6,6,0,0,0,1.35-.05,11.52,11.52,0,0,0,1.64-1.76l.11-1.54-.85-2.65L330.12,6,333.2,4.2,336.05,2h2.75l3.07-.22,1.54,2.41,1.54,3,1.87,4.61L348,14l.66,2.53,1.43,3.73.66,2.31,1.1,3.73,1.21,4.39.11,2.2v6.37l-1,3.95-.88,2.2-1.43,1.87L348.57,49l-.76,2,.21,2.86-2.27.15-7.28-4.76-5.82-5-4-4.06-3.84-3.73-2.31-2.75-1.75-3.52-3-3-2.75-2.09-1.53-1.65Z" />
  </g>
  <g id="undershoelace" style="isolation: isolate" class="showpart">
    <polygon points="108.49 97.65 110.98 95.45 115.66 94.14 121.66 93.55 126.64 92.38 130.88 91.94 134.4 91.65 136.74 88.28 138.79 86.09 139.52 90.04 139.22 92.38 140.25 93.84 143.47 95.31 147.71 94.72 149.18 93.55 150.2 91.21 150.2 88.72 150.2 85.35 151.22 83.45 153.42 81.7 156.2 81.26 158.98 81.7 160.74 82.87 162.79 83.31 165.28 84.77 168.35 84.33 171.28 83.45 173.03 81.99 173.47 79.21 173.47 76.72 173.47 74.82 173.91 72.33 176.25 70.72 177.13 69.4 179.03 69.55 181.08 72.18 183.13 72.77 185.62 72.92 188.69 72.92 190.88 73.06 193.96 72.04 194.69 70.28 195.13 68.38 195.13 66.18 194.25 63.84 193.23 62.38 194.98 61.35 196.89 60.91 199.08 60.04 201.42 59.89 203.18 60.33 205.52 60.91 208.15 62.38 211.08 62.38 214.89 62.38 217.08 61.35 217.37 59.3 218.11 57.69 218.11 55.06 217.23 52.87 218.11 51.4 220.16 50.67 221.76 49.35 223.67 50.52 226.89 50.96 229.08 52.43 233.18 53.16 236.25 53.16 238.3 53.01 239.47 51.26 239.62 48.62 239.77 46.28 239.03 43.65 237.13 42.47 236.11 41.01 235.38 38.82 236.84 37.94 239.03 37.94 241.67 38.08 243.13 38.67 244.74 39.69 246.94 40.72 250.01 41.74 253.23 42.33 257.47 42.33 260.99 41.74 262.74 39.84 262.74 35.01 261.86 32.67 260.55 30.04 261.86 28.72 263.47 27.69 266.4 27.69 268.89 28.57 271.82 30.33 274.74 31.06 278.25 31.06 283.67 30.47 283.96 29.16 284.4 25.64 283.52 22.86 281.91 20.82 281.77 19.06 284.11 18.62 287.18 18.62 290.25 18.33 293.77 18.47 296.99 19.5 299.18 20.52 301.38 22.28 303.43 23.59 306.35 25.5 310.01 28.13 310.89 30.04 302.55 32.67 297.57 34.42 293.18 36.47 289.82 38.38 283.82 41.16 280.45 42.47 276.64 44.67 269.62 48.48 263.33 51.84 260.55 52.28 257.04 54.33 252.21 55.94 247.23 57.4 243.13 59.74 238.01 62.38 233.91 64.43 228.79 66.33 224.54 68.52 219.28 70.57 212.84 73.79 209.32 75.11 206.54 76.13 202.89 78.04 195.57 81.4 190.59 83.6 185.18 86.67 179.76 89.31 175.52 91.35 170.98 93.7 163.81 96.48 155.91 98.97 149.18 100.43 143.32 101.75 137.91 102.92 133.52 104.23 128.54 104.23 122.69 103.94 118.3 103.79 114.93 102.92 112.15 102.04 110.1 100.87 108.93 99.26 108.49 97.65" />
  </g>
  <g id="logo" style="isolation: isolate" class="showpart">
    <polygon points="178.99 139.17 182.97 132.65 185.68 128.99 189.02 124.61 191.25 123.02 194.27 119.72 196.61 118.44 200.84 114.21 203.43 113.08 207.55 110.61 210.96 107.87 217.73 104.86 225.27 102.47 237.34 98.7 245.01 96.82 250.16 95.44 258.71 94.36 269.51 93.8 274.67 93.8 287.61 92.8 324.19 91.16 345.55 90.03 355.48 88.9 366.04 87.27 377.22 84.88 393.56 81.74 403.74 79.73 411.66 78.34 420.08 76.33 429.15 73.66 435.92 71.81 441.45 70.43 445.5 69 452.26 67.16 456.28 66.4 459.8 66.4 462.81 67.28 465.45 69.04 467.09 71.81 468.47 74.45 468.97 76.46 469.35 78.22 469.35 79.35 465.08 82.24 458.79 84 454.05 86.11 448.74 87.39 443.84 88.9 438.18 90.03 434.16 91.04 430.39 92.3 425.86 93.55 423.1 93.8 422.6 90.16 422.72 86.64 422.09 83.5 419.45 83.37 416.31 83.37 413.3 84.13 409.02 84.38 405.38 84.5 401.23 84.5 397.82 85.65 396.58 88.15 396.45 89.91 396.45 92.04 396.83 94.18 396.83 96.06 396.83 98.7 395.07 100.21 390.55 101.34 386.78 102.22 383.63 103.73 380.24 104.11 376.34 105.11 371.32 105.87 366 106.5 357.99 107.88 350.7 109.39 344.55 110.52 337 111.02 329.46 112.15 323.43 113.03 314.88 115.17 307.97 116.93 304.2 118.19 298.67 121.45 293.64 126.23 289.37 131.51 287.24 135.03 285.35 138.8 283.21 143.57 282.46 146.84 281.7 149.73 280.32 153.75 279.94 156.39 279.44 160.04 278.81 163.81 278.31 167.08 277.68 170.72 277.43 172.35 251.07 174.69 241.67 174.69 224.93 174.81 222.29 175.26 215.22 169.34 209.44 164.69 206.17 161.67 202.27 157.65 199.13 154.13 195.61 151.11 190.59 147.72 186.81 144.96 183.55 142.82 178.99 139.17" />
  </g>
  <g id="Lag_7" data-name="Lag 7" style="isolation: isolate" class="showpart">
    <path d="M42.59,119.9l2.15-2.15h2.58a69.2,69.2,0,0,1,7.1-1.72c1.07,0,11.83-4.3,11.83-4.3l9.25-2.15,6.67-3,5-1.93,5.81-2.8,7.53-1.94,4.3-1.5,3.24-.14.32,2.16,3.3,1.7,1.8,1.06,6,.75,3.93.74,5.32.43,5-.22,6.38-.1,8.8-1.23,3.32-.28,8.16,1.06,8.5.05,5.67.1,4.92-.48H183l6.34.1,4.26.47,6.52,1.23,4.07.38h1.32l3.12,1,2.37.66-3.41,2.74-2.27,1-1.85,1.44-2.59,1.12-2.18,2-2,2.25-2.34,1.28-1.52,1.78-1.5,1.52L189,124.61l-2.46,3-2.37,2.93L183,132.65l-1.37,2.46-2.12,2.83L177.75,141l-6.13-2.77-3.89-.59L162,136.36l-3.79-1.25-3.69-1.33-5.58-.85-8.32-.28-4.64-.38-6.24-.47-8.8-.57-6.42.17-7.76-1.21-7-.38-8-.47-6.62-.29-5.28,0-5.55.3-6.57-.93L63,128.11l-5.39-.28L54,127.54l-3.41-.28-3.12-1-2.65-1.14-2.08-2.74Z" />
  </g>
  <g id="Lag_6" data-name="Lag 6" style="isolation: isolate" class="showpart">
    <path d="M18.47,161.91l5.87,2.79,10.43,3.38,15.42,1.76L71,172.48,90.42,175l14.69,1.61,19.53,1.18,17.91.15,17.48.29,20.7.73,17.35-.72,13.49-1,9.1-2,10.76-.88,10.24.35,9-.88,16.41-.74,15.86-1.17,17.18-.44,14.24-.59,8.67-.59,13.65-.29,5.88-.44h5.28l1.91.29.29,5,.3,1.76h9.25l11.75-.14,9.39.14,7.2-.14,7.09-.34,6.71.34,9.4-.74h11.41l4,.31,2.93-1.15,1.77-.11,1.47-3.59v-2.35l6.61-.29,10.13-1.42,7.63.83,4.85-.15,6.94-.68,2.46.54,1.61,3.08v8.37l.3,3.23v2.2l-.15,3.09-.29,2.49-1.62.44-1.61,1-1.77,3.09-1.61,3.08.14,1.76-.73,3.09-2.06,1.76-1.61.59-1.76.14-1.76-.88-2.65.74-2,.58-1.62,1.32-1,1.33-.88,2.93-1,2.21-2.2,1.32-3.38.73-3.08-.88-1.91-1.91-.29-2.64-3.67-.59-3.38.15-1.32.29-.3,2.5-1.32,1.61-3.38,1.47-2.79-.15-1.76-1.76-1.47-1.32-.88-1.61-.29-1.33H407.9l-1.32,4.12-3.23,1.46-2.94.3-2.35-.59L396.3,213l-.44-2.49v-1.47l-4.26-.3h-6.9l-.59,2.65-.44,2.35-2.05.88-3.82.73-1.91-1.47-2.06-.88-.58-1.91v-1.47l-4.56-.44h-4.25l-.89,1.77-1,1.76-1.33,1-2.49,1h-1.62l-1.91-.29-1.61-1.17-1.18-1.77-.29-1.76-2.94-.59-3.52-.14h-3.23L341.23,212l-2.49,2.35-2.79.59-2.65-.59-1.9-.88-1.47-1.32v-2.2l-4.41-1.18-2,.3H321.7l-1.76.58-.15,2.65-.73,1.76-1.76.44-2.35.88L313.33,214l-1.91-2.94-.44-1.61-3.23-.44h-4.84l-1.32.58v2.06l-.89,1.91-1.32.73-2.2.88-2.06-.29-1-2.06-1.62-3.08h-2.05l-3.38-.15H284.7l-1.47.74-.15,1.91-1.17,1.61-2.2,1.47h-2.5l-1.76-2.5-.74-1.9v-1.47h-7.78l-1.47.29v1.62l-.14,2-1.18,1.47-2.79,1-2.5-.74-1.17-1.76-.73-2-.15-1.47h-5.73l-2-.15-2.06.29-.59,1.91-.88,1.91-1.32,1.32-2.06.74-2.05-.15-1.91-.73-2.2-.59-.44-1.91V211l-2.65-.44-2.93-.15h-5.88l-.44,3.38L222,216.24l-2.79.88-3.09-.14-2.35-1.91-.88-2.21-.14-1.76h-5.88l-2.79.15-2.35.44-.29,2.5L200,217.12l-2.64,1.47-4.26-.88-1.18-2.2-1.46-2.35-.11-.7-3.27-.48-3.61.48-2.71-.62-.44,3.37L179,217.27,176,218.45l-3.52-.15-1.91-2.2L169,214.19,168.1,212H159l-1.17,2.65-.89,2.35-2.49,1.17h-3.38l-2.94-2.2-1.61-1.76v-2.06l-2.79-.15h-5l-2.5.59v2.06l-1.91,1.91-3.82.44-3.82-.74-1.9-1v-2.05l-.15-1.91-1.62-.44-2.93-.29h-2.21l-2.64-.15-.73,2.35-1.62,2.05h-6.46l-1.91-3.08-.88-2.06v-1.32l-3.52-.73L97,207.14,95.27,207l-.88,1.91-2.06,1.91L89.54,212,86,211.1l-1.91-2-.73-2.5V204.2l-3.09-.29-2.05-.15-1.33-.29-2-.15-.59,2.2s-.88,1-1.47,1S69,207,69,207l-2.06-2.2-2.2-1.47L64.29,201l-.15-1.76L62.08,197l-3.23-.59-1.76-1L54.89,197l-3.67,1.32-2.06-.88-2.35-2.06-.73-1.61-.44-2.21-3.09-2-3.23-1.91-2.2-.74-1.91-.73-3.67.15-1.47-.3-1-2.79L27,181.73l-2.06-1.61L22,178.36l-1-1.77L18.76,174l-2.05-.44-1.47-2.94L15,168.22l-.3-2.64v-2.5l-1-1.62-.2-4-.3-4.55-.44-4.7-.58-4,.44-2.2,2.05-2.21L16,142.53l.15,3.67.15,3.08V156l.59,2.64Z" />
  </g>
  <g id="Lag_5" data-name="Lag 5" style="isolation: isolate" class="showpart">
    <polygon points="414.75 62.25 420.21 60.2 425.26 59.22 430.97 56.45 435.21 54.01 438.96 51.07 442.23 47.81 444.18 42.75 445.65 39 447.93 33.29 449.73 30.68 452.83 27.75 455.83 26.35 458.61 24.44 460.82 25.63 463.92 31.17 465.22 34.92 466.39 38.41 467.26 45.48 467.82 51.28 468.93 56.12 469.46 60.37 470.28 64.28 471.09 68.03 471.91 71.78 472.82 73.99 472.07 76.51 470.99 77.8 469.5 79.5 469.46 74.72 468.16 71.78 465.55 69.17 463.59 66.07 458.86 65.26 454.95 66.07 451.62 67.24 448.42 67.54 445.5 69 437.49 70.1 432.4 68.19 427.08 67.56 423.91 65.57 421.76 64.78 419.62 64.3 417.76 62.98 414.75 62.25" />
  </g>
  <g id="Lag_4" data-name="Lag 4" style="isolation: isolate" class="showpart">
    <polygon points="137.06 88.3 138.33 86.97 139.66 86.15 139.66 84.19 141 82.5 142.37 82.3 143.38 81.79 145.03 81.79 145.59 81.1 147.11 80.97 147.68 81.03 148.5 80.25 149.7 80.34 150.02 81.92 150.52 83.62 151.16 85.46 151.09 87.86 150.78 90.32 150 91.5 148.12 94.3 145.47 95 142.31 95.31 140.22 94.62 138.39 93.54 136.62 92.03 136.37 90.57 136.43 88.87 137.06 88.3" />
    <polygon points="160.13 74.78 162.53 73.89 163.73 72.38 165.63 70.92 168.22 70.42 171.12 70.42 172.7 71.68 173.08 73.51 173.59 74.14 173.65 76.55 173.78 78.63 173.59 80.59 172.39 82.86 170.87 84.07 168.85 85.2 165.5 84.89 162.03 83.88 160.19 81.6 158.93 79.77 157.98 78.57 160.13 74.78" />
    <polygon points="178.96 67.89 179.97 65.93 182.94 64.29 185.47 63.21 188.12 62.77 190.52 62.14 192.74 63.4 195.45 66.18 195.71 68.39 194.88 70.29 193.49 71.93 190.46 72 188.88 72.82 185.28 72.82 181.55 72.19 180.03 70.98 179.09 69.15 178.96 67.89"  />
    <polygon points="200.07 56.64 202.78 55.19 205.06 54.24 208.09 53.16 210.37 52.47 212.89 52.47 214.98 52.47 216.72 52.6 217.96 54.33 218.52 56.64 218.26 58.79 217.12 61.71 213.78 62.45 210.24 62.45 206.47 62.11 204.3 60.62 201.27 59.93 198.6 60.08 199.04 57.8 200.07 56.64" />
    <polygon points="221.8 48.38 223.51 46.4 226.92 44.26 228.69 42.99 230.78 41.85 233.24 41.22 234.38 40.72 234.32 38.88 235.07 36.61 236.84 34.9 238.42 33.83 239.88 33.51 241.52 32.25 242.78 30.73 244.36 29.78 246.26 28.65 250.43 28.2 253.27 28.39 255.99 28.39 258.01 28.2 259.15 26.94 260.79 25.36 262.37 23.02 265.09 21.76 267.55 19.99 270.27 18.79 273.12 17.97 275.2 17.4 277.03 16.64 279.5 17.4 282 18.75 283.79 22.27 285 24.29 285.06 26.18 284.87 27.76 283.81 30.14 281.65 31.3 278.87 31.68 275.33 31.81 272.93 31.18 270.97 30.23 268.82 28.96 267.43 28.39 266.16 27.45 265.18 27.68 263.9 27.68 262.81 28.07 261.86 28.72 261.33 30.04 261.63 31.92 261.74 32.88 262.75 35.03 262.81 37.3 262.91 40.2 260.74 42.27 256.8 42.76 252.07 42.07 250.01 41.74 247.34 40.89 245.56 40.1 242.72 37.81 240.57 38.19 239.43 39.45 238.74 41.48 239.25 43.12 240.19 46.09 240.51 47.79 239.69 50.13 238.3 53.01 235.11 53.31 231.53 52.72 228.25 51.97 225.78 51.08 222.79 50.06 221.8 48.38"/>
  </g>
  <g id="Lag_3" data-name="Lag 3" style="isolation: isolate" class="showpart">
    <polygon points="341.08 165.34 343.5 146.25 347.54 134.53 352.01 123.35 359.25 112.5 369.18 106.99 378.6 104.97 387.29 102.24 393.5 100.75 396.75 100.5 404.25 100.5 409.65 99.01 418.84 96.27 423 93.75 432.01 92.8 441.7 90.56 450.64 87.58 458.59 85.34 467.04 82.11 469.5 79.5 471.75 76.5 474.75 77.25 474.99 82.11 475.73 118.88 475.73 134.78 474.99 143.48 474.24 150.43 472.25 156.15 470.02 160.12 465.15 164.54 458.59 165.09 454.37 165.84 446.22 166.22 439.46 166.58 435.98 166.58 432 165.75 432 147.75 425.88 147.85 420.63 147.66 414.17 147.76 400.48 147.57 390.36 147.95 378.27 147.85 367.87 147.76 361.59 148.04 355.59 147.95 351.65 148.98 349.78 155.4 349.4 168.19 345.8 168.82 342 169.5 341.08 165.34" />
  </g>
  <g id="Lag_2" data-name="Lag 2" style="isolation: isolate" class="showpart">
    <polygon points="350.1 176.25 349.43 164.7 350.27 155.15 350.23 149.03 356.73 147.95 365.76 147.7 389.53 147.95 402.94 147.57 418.21 147.83 421.82 147.95 432 147.75 432.01 154.9 431.76 162.6 431.76 171.05 431.25 174.75 350.1 176.25" />
  </g>
  <g id="Lag_1" data-name="Lag 1" style="isolation: isolate" class="showpart">
    <polyline points="21.84 131.8 27.31 128.82 31.04 126.83 36.5 124.35 41.25 120 43.5 118.5 48 117 45.69 122.36 46.69 125.59 51.91 127.83 59.85 128.07 74.26 129.07 86.69 128.82 98.61 129.56 106.56 130.31 115.5 131.3 128.67 132.05 139.35 132.54 153.02 133.79 160.22 135.78 169.91 138.01 177.75 141 196 151.43 207.43 162.11 214.38 168.57 221.25 174.75 211.4 176.52 187.3 178.26 131.9 177.26 99.85 175.03 83.21 173.54 59.11 171.05 35.26 168.07 19.5 162 15.63 155.65 14.29 140.3"/>
  </g>
  <g id="shadow">
    <image id="Lag_12_kopier_Billede" data-name="Lag 12 kopier Billede" width="640" height="304" transform="scale(0.75)" xlink:href="show1.png"/>
  </g>
</svg>
